<svg xmlns="http://www.w3.org/2000/svg" xmlns:xlink="http://www.w3.org/1999/xlink" viewBox="0 0 70 70"><defs><path id="a" d="M5.1 5.2h59.4v59.4H5.1z"/></defs><clipPath id="b"><use xlink:href="#a" overflow="visible"/></clipPath><linearGradient id="c" gradientUnits="userSpaceOnUse" x1="5.057" y1="34.945" x2="64.5" y2="34.945"><stop offset="0" stop-color="#2472b8"/><stop offset="1" stop-color="#0ad"/></linearGradient><path d="M48.5 61.8c.4-.4 1-1.3 1.2-1.8.4-.9.7-1.8.9-2.8 3 .3 5.8-.7 7.9-2.8.5-.5 1-1.2 1.4-1.8 2-3.2 1.9-7-.1-10 3-2 4.7-5.3 4.7-8.9 0-4.1-2.3-7.7-5.9-9.6.5-2.5-.1-5.1-1.6-7.2-1.6-2.2-3.9-3.6-6.5-4.1-.1-1.8-.9-3.5-2.1-4.9-1.6-1.8-3.9-2.8-6.4-2.8-3 0-5.6 1.5-7.2 3.8-1.5-2.3-4.2-3.8-7.2-3.8-2.4 0-4.8 1-6.4 2.8-1.3 1.4-2 3.1-2.1 4.9-2.6.4-5 1.8-6.5 4.1-1.5 2.1-2.1 4.7-1.6 7.2-3.6 1.9-5.9 5.5-5.9 9.6 0 3.6 1.8 6.9 4.7 8.9-2 3-2.1 6.8-.1 10 2 3.4 5.6 5.1 9.4 4.7.2 1.7.9 3.2 2.1 4.5 1.6 1.8 4 2.8 6.4 2.8 3 0 5.6-1.5 7.2-3.8 1.5 2.3 4.2 3.8 7.2 3.8.8 0 1.6-.1 2.4-.3-.7.2-1.5.3-2.2.3-3 0-5.6-1.5-7.2-3.8 1.5 2.3 4.2 3.8 7.2 3.8.8 0 1.5-.1 2.2-.3.2-.1.5-.1.7-.2 1.2-.5 2.4-1.2 3.4-2.3m-15.1-5.5c0 3.1-2.6 5.6-5.8 5.6-1.7 0-3.2-.7-4.3-1.9-.8-.9-1.3-2.1-1.4-3.3 2.9-1.1 3.6-3 4.1-4.4.5-1.2.7-1.9 2.1-2.3.7-.2 1.2-1 1-1.7-.2-.7-1-1.2-1.7-1-2.8.7-3.5 2.5-4 4-.5 1.4-.9 2.4-3.3 3.1-3.9 1.1-6.8-1-8-3.1-1.3-2.1-1.7-5.3.8-8 .3-.3.4-.8.4-1.2-.1-.4-.4-.8-.8-1-2.9-1.4-4.6-4.1-4.6-7.2 0-3.3 2.1-6.3 5.3-7.5.7-.3 1.1-1 .8-1.7-.7-2-.3-4.2.9-5.9 1.3-1.8 3.4-2.9 5.7-3 2.8 0 3.4 1.2 4.2 2.6.7 1.3 1.7 3.1 4.3 3.1.8 0 1.4-.6 1.4-1.4 0-.8-.6-1.4-1.4-1.4-.9 0-1.2-.3-1.9-1.7-.8-1.4-2-3.5-5.3-4 .1-1.1.6-2.1 1.4-3 1.1-1.3 2.7-2 4.3-2 3.2 0 5.8 2.5 5.8 5.6V35c-4-.3-5-2.2-6.1-4.2-1.1-2-2.4-4.5-6.5-4.9-.8-.1-1.5.5-1.5 1.2-.1.8.5 1.5 1.2 1.5 2.6.3 3.3 1.5 4.3 3.5.4.7.8 1.5 1.3 2.2-.8.9-2.2 1.8-3.7 2.6-.7.3-1 1.2-.6 1.9.2.5.7.8 1.3.8.2 0 .4 0 .6-.1 1.8-.9 3.3-2 4.4-3.1 1.2.8 2.9 1.4 5.2 1.6v18.3zm13.5 2.9s-.1.1-.1.2c-.1.2-.3.4-.5.6-1.1 1.2-2.7 1.9-4.3 1.9-3.2 0-5.8-2.5-5.8-5.6V45.1c0-2.9 1.6-4.4 3-4.8 1.8-.5 3.7.4 4.8 2.4.4.7 1.2.9 1.9.5s.9-1.2.5-1.9c-1.8-3.1-4.9-4.5-8-3.7-.9.2-1.6.6-2.3 1.1V28c3.5.3 4.6 1.5 5.8 3.1 1.1 1.3 2.3 2.8 4.8 3.6.1 0 .3.1.4.1.6 0 1.1-.4 1.3-1 .2-.7-.2-1.5-.9-1.8-1.8-.6-2.6-1.5-3.5-2.7-1.5-1.8-3.1-3.8-8-4.1V13.6c0-3.1 2.6-5.6 5.8-5.6 1.7 0 3.2.7 4.3 1.9.8.9 1.3 1.9 1.4 3-3.3.5-4.5 2.6-5.3 4-.7 1.3-1 1.7-1.9 1.7-.8 0-1.4.6-1.4 1.4 0 .8.6 1.4 1.4 1.4 2.6 0 3.6-1.8 4.3-3.1.8-1.5 1.5-2.6 4.2-2.6 2.3.1 4.4 1.1 5.7 3 1.2 1.8 1.6 3.9.9 5.9-.2.7.1 1.5.8 1.7 3.2 1.2 5.3 4.2 5.3 7.5 0 3.1-1.8 5.8-4.6 7.2-.4.2-.7.6-.8 1-.1.4 0 .9.4 1.2 2.5 2.7 2.1 5.9.8 8-1.3 2.1-4.1 4.2-8 3.1-2.3-.6-2.7-1.7-3.3-3.1-.5-1.4-1.2-3.2-4-4-.7-.2-1.5.2-1.7 1-.2.7.2 1.5 1 1.7 1.4.4 1.7 1.1 2.1 2.3.5 1.4 1.3 3.3 4.1 4.4.1 1-.2 1.8-.6 2.6" clip-path="url(#b)" fill="url(#c)"/></svg>