<svg version="1.1" id="svg11374" xmlns="http://www.w3.org/2000/svg" x="0" y="0" viewBox="0 0 320.2 160.8" xml:space="preserve"><style>.st0{fill:#d8261c}</style><g id="layer1" transform="translate(-290.179 -232.987)"><g id="g2582" transform="matrix(16.47233 0 0 -16.47233 450.084 269.93)"><path id="path2584" class="st0" d="M0 0l2.1 2.2h1.7v-5.5H2.3V.1L0-2.2-2.3.1v-3.4h-1.5v5.5h1.7L0 0z"/></g><g id="g2586" transform="matrix(16.47233 0 0 -16.47233 290.179 232.987)"><path id="path2588" class="st0" d="M0 0h5.5v-2.3H2.4L0 0z"/></g><g id="g2590" transform="matrix(16.47233 0 0 -16.47233 610.396 234.22)"><path id="path2592" class="st0" d="M0 0h-5.5v-2.3h3.1L0 0z"/></g><g id="g2594" transform="matrix(16.47233 0 0 -16.47233 336.064 279.228)"><path id="path2596" class="st0" d="M0 0h2.7v-2.7L0 0z"/></g><g id="g2598" transform="matrix(16.47233 0 0 -16.47233 564.15 280.106)"><path id="path2600" class="st0" d="M0 0h-2.7v-2.7L0 0z"/></g><g id="g2602" transform="matrix(16.47233 0 0 -16.47233 387.122 330.68)"><path id="path2604" class="st0" d="M0 0h7.6L3.8-3.8 0 0z"/></g></g></svg>