<svg xmlns="http://www.w3.org/2000/svg" width="320.217" height="160.765" version="1.0"><path d="M159.905 36.944L194.398.754l28.415.099-.346 89.857-25.433-.1.214-55.61-37.458 37.837-37.145-38.117-.214 55.61-25.45-.098.346-89.857 28.414.116 34.164 36.453zM0 0l89.857.346-.149 38.611-51.245-.198L0 0zm320.217 1.234L230.278.888l-.148 38.61 51.328.199 38.76-38.463zM45.885 46.241l43.8.165-.181 43.8L45.885 46.24zm228.086.878l-43.865-.165-.165 43.866 44.03-43.701zM96.943 97.692l125.585.478-62.99 62.595-62.595-63.072z" fill-rule="evenodd" fill="#00a847"/></svg>