<?xml version="1.0" encoding="utf-8"?>
<!-- Generator: Adobe Illustrator 21.0.0, SVG Export Plug-In . SVG Version: 6.00 Build 0)  -->
<svg version="1.1" id="Layer_1" xmlns="http://www.w3.org/2000/svg" xmlns:xlink="http://www.w3.org/1999/xlink" x="0px" y="0px"
	 viewBox="0 0 70 70" style="enable-background:new 0 0 70 70;" xml:space="preserve">
<style type="text/css">
	.st0{clip-path:url(#SVGID_2_);fill:url(#SVGID_3_);}
</style>
<g>
	<defs>
		<rect id="SVGID_1_" x="5.1" y="5.2" width="59.4" height="59.4"/>
	</defs>
	<clipPath id="SVGID_2_">
		<use xlink:href="#SVGID_1_"  style="overflow:visible;"/>
	</clipPath>
	<linearGradient id="SVGID_3_" gradientUnits="userSpaceOnUse" x1="5.0566" y1="34.9451" x2="64.5001" y2="34.9451">
		<stop  offset="0" style="stop-color:#2472B8"/>
		<stop  offset="1" style="stop-color:#00AADD"/>
	</linearGradient>
	<path class="st0" d="M48.5,61.8c0.4-0.4,1-1.3,1.2-1.8c0.4-0.9,0.7-1.8,0.9-2.8c3,0.3,5.8-0.7,7.9-2.8c0,0,0,0,0,0
		c0.5-0.5,1-1.2,1.4-1.8c2-3.2,1.9-7-0.1-10c3-2,4.7-5.3,4.7-8.9c0-4.1-2.3-7.7-5.9-9.6c0.5-2.5-0.1-5.1-1.6-7.2
		c-1.6-2.2-3.9-3.6-6.5-4.1c-0.1-1.8-0.9-3.5-2.1-4.9c-1.6-1.8-3.9-2.8-6.4-2.8c-3,0-5.6,1.5-7.2,3.8c-1.5-2.3-4.2-3.8-7.2-3.8
		c-2.4,0-4.8,1-6.4,2.8c-1.3,1.4-2,3.1-2.1,4.9c-2.6,0.4-5,1.8-6.5,4.1c-1.5,2.1-2.1,4.7-1.6,7.2c-3.6,1.9-5.9,5.5-5.9,9.6
		c0,3.6,1.8,6.9,4.7,8.9c-2,3-2.1,6.8-0.1,10c2,3.4,5.6,5.1,9.4,4.7c0.2,1.7,0.9,3.2,2.1,4.5c1.6,1.8,4,2.8,6.4,2.8
		c3,0,5.6-1.5,7.2-3.8c1.5,2.3,4.2,3.8,7.2,3.8c0.8,0,1.6-0.1,2.4-0.3c-0.7,0.2-1.5,0.3-2.2,0.3c-3,0-5.6-1.5-7.2-3.8
		c1.5,2.3,4.2,3.8,7.2,3.8c0.8,0,1.5-0.1,2.2-0.3c0.2-0.1,0.5-0.1,0.7-0.2c0,0,0,0,0,0C46.3,63.6,47.5,62.9,48.5,61.8 M33.4,56.3
		c0,3.1-2.6,5.6-5.8,5.6c-1.7,0-3.2-0.7-4.3-1.9c-0.8-0.9-1.3-2.1-1.4-3.3c2.9-1.1,3.6-3,4.1-4.4c0.5-1.2,0.7-1.9,2.1-2.3
		c0.7-0.2,1.2-1,1-1.7c-0.2-0.7-1-1.2-1.7-1c-2.8,0.7-3.5,2.5-4,4c-0.5,1.4-0.9,2.4-3.3,3.1c0,0,0,0,0,0c0,0,0,0,0,0
		c-3.9,1.1-6.8-1-8-3.1c-1.3-2.1-1.7-5.3,0.8-8c0.3-0.3,0.4-0.8,0.4-1.2c-0.1-0.4-0.4-0.8-0.8-1c-2.9-1.4-4.6-4.1-4.6-7.2
		c0-3.3,2.1-6.3,5.3-7.5c0.7-0.3,1.1-1,0.8-1.7c-0.7-2-0.3-4.2,0.9-5.9c1.3-1.8,3.4-2.9,5.7-3c2.8,0,3.4,1.2,4.2,2.6
		c0.7,1.3,1.7,3.1,4.3,3.1c0.8,0,1.4-0.6,1.4-1.4c0-0.8-0.6-1.4-1.4-1.4c-0.9,0-1.2-0.3-1.9-1.7c-0.8-1.4-2-3.5-5.3-4
		c0.1-1.1,0.6-2.1,1.4-3C24.4,8.7,26,8,27.6,8c3.2,0,5.8,2.5,5.8,5.6V35c-4-0.3-5-2.2-6.1-4.2c-1.1-2-2.4-4.5-6.5-4.9
		c-0.8-0.1-1.5,0.5-1.5,1.2c-0.1,0.8,0.5,1.5,1.2,1.5c2.6,0.3,3.3,1.5,4.3,3.5c0.4,0.7,0.8,1.5,1.3,2.2c-0.8,0.9-2.2,1.8-3.7,2.6
		c-0.7,0.3-1,1.2-0.6,1.9c0.2,0.5,0.7,0.8,1.3,0.8c0.2,0,0.4,0,0.6-0.1c1.8-0.9,3.3-2,4.4-3.1c1.2,0.8,2.9,1.4,5.2,1.6V56.3z
		 M46.9,59.2c0,0-0.1,0.1-0.1,0.2c-0.1,0.2-0.3,0.4-0.5,0.6c-1.1,1.2-2.7,1.9-4.3,1.9c-3.2,0-5.8-2.5-5.8-5.6V45.1
		c0-2.9,1.6-4.4,3-4.8c1.8-0.5,3.7,0.4,4.8,2.4c0.4,0.7,1.2,0.9,1.9,0.5c0.7-0.4,0.9-1.2,0.5-1.9c-1.8-3.1-4.9-4.5-8-3.7
		c-0.9,0.2-1.6,0.6-2.3,1.1V28c3.5,0.3,4.6,1.5,5.8,3.1c1.1,1.3,2.3,2.8,4.8,3.6c0.1,0,0.3,0.1,0.4,0.1c0.6,0,1.1-0.4,1.3-1
		c0.2-0.7-0.2-1.5-0.9-1.8c-1.8-0.6-2.6-1.5-3.5-2.7c-1.5-1.8-3.1-3.8-8-4.1V13.6c0-3.1,2.6-5.6,5.8-5.6c1.7,0,3.2,0.7,4.3,1.9
		c0.8,0.9,1.3,1.9,1.4,3c-3.3,0.5-4.5,2.6-5.3,4c-0.7,1.3-1,1.7-1.9,1.7c-0.8,0-1.4,0.6-1.4,1.4c0,0.8,0.6,1.4,1.4,1.4
		c2.6,0,3.6-1.8,4.3-3.1c0.8-1.5,1.5-2.6,4.2-2.6c2.3,0.1,4.4,1.1,5.7,3c1.2,1.8,1.6,3.9,0.9,5.9c-0.2,0.7,0.1,1.5,0.8,1.7
		c3.2,1.2,5.3,4.2,5.3,7.5c0,3.1-1.8,5.8-4.6,7.2c-0.4,0.2-0.7,0.6-0.8,1c-0.1,0.4,0,0.9,0.4,1.2c2.5,2.7,2.1,5.9,0.8,8
		c-1.3,2.1-4.1,4.2-8,3.1c0,0,0,0,0,0c0,0,0,0,0,0c-2.3-0.6-2.7-1.7-3.3-3.1c-0.5-1.4-1.2-3.2-4-4c-0.7-0.2-1.5,0.2-1.7,1
		c-0.2,0.7,0.2,1.5,1,1.7c1.4,0.4,1.7,1.1,2.1,2.3c0.5,1.4,1.3,3.3,4.1,4.4C47.6,57.6,47.3,58.4,46.9,59.2"/>
</g>
</svg>
