<?xml version="1.0" encoding="utf-8"?>
<!-- Generator: Adobe Illustrator 21.0.0, SVG Export Plug-In . SVG Version: 6.00 Build 0)  -->
<svg version="1.1"
	 id="svg11374" inkscape:output_extension="org.inkscape.output.svg.inkscape" inkscape:version="0.48.1 r9760" sodipodi:docname="Metro C.svg" sodipodi:version="0.32" xmlns:cc="http://creativecommons.org/ns#" xmlns:dc="http://purl.org/dc/elements/1.1/" xmlns:inkscape="http://www.inkscape.org/namespaces/inkscape" xmlns:rdf="http://www.w3.org/1999/02/22-rdf-syntax-ns#" xmlns:sodipodi="http://sodipodi.sourceforge.net/DTD/sodipodi-0.dtd" xmlns:svg="http://www.w3.org/2000/svg"
	 xmlns="http://www.w3.org/2000/svg" xmlns:xlink="http://www.w3.org/1999/xlink" x="0px" y="0px" viewBox="0 0 320.2 160.8"
	 style="enable-background:new 0 0 320.2 160.8;" xml:space="preserve">
<style type="text/css">
	.st0{fill:#F5B533;}
</style>
<defs>
	
	
		<inkscape:perspective  id="perspective11382" inkscape:persp3d-origin="372.04724 : 350.78739 : 1" inkscape:vp_x="0 : 526.18109 : 1" inkscape:vp_y="0 : 1000 : 0" inkscape:vp_z="744.09448 : 526.18109 : 1" sodipodi:type="inkscape:persp3d">
		</inkscape:perspective>
</defs>
<sodipodi:namedview  bordercolor="#666666" borderopacity="1.0" id="base" inkscape:current-layer="layer1" inkscape:cx="153.17526" inkscape:cy="111.50912" inkscape:document-units="px" inkscape:pageopacity="0.0" inkscape:pageshadow="2" inkscape:window-height="690" inkscape:window-maximized="0" inkscape:window-width="811" inkscape:window-x="1" inkscape:window-y="0" inkscape:zoom="0.98543502" pagecolor="#ffffff" showgrid="false">
	</sodipodi:namedview>
<g id="layer1" transform="translate(-290.17887,-232.98701)" inkscape:groupmode="layer" inkscape:label="Ebene 1">
	<g id="g2578" transform="matrix(16.472327,0,0,-16.472327,318.59499,149.41361)">
	</g>
	<g id="g2582" transform="matrix(16.472327,0,0,-16.472327,450.08392,269.93089)">
		<path id="path2584" class="st0" d="M0,0l2.1,2.2l1.7,0l0-5.5l-1.5,0l0,3.4L0-2.2l-2.3,2.3l0-3.4l-1.5,0l0,5.5l1.7,0L0,0z"/>
	</g>
	<g id="g2586" transform="matrix(16.472327,0,0,-16.472327,290.17887,232.98701)">
		<path id="path2588" class="st0" d="M0,0l5.5,0l0-2.3l-3.1,0L0,0z"/>
	</g>
	<g id="g2590" transform="matrix(16.472327,0,0,-16.472327,610.39604,234.22072)">
		<path id="path2592" class="st0" d="M0,0l-5.5,0l0-2.3l3.1,0L0,0z"/>
	</g>
	<g id="g2594" transform="matrix(16.472327,0,0,-16.472327,336.06418,279.228)">
		<path id="path2596" class="st0" d="M0,0l2.7,0l0-2.7L0,0z"/>
	</g>
	<g id="g2598" transform="matrix(16.472327,0,0,-16.472327,564.15018,280.10604)">
		<path id="path2600" class="st0" d="M0,0l-2.7,0l0-2.7L0,0z"/>
	</g>
	<g id="g2602" transform="matrix(16.472327,0,0,-16.472327,387.12181,330.67951)">
		<path id="path2604" class="st0" d="M0,0l7.6,0L3.8-3.8L0,0z"/>
	</g>
</g>
</svg>
